<?xml version="1.0" encoding="UTF-8"?>
<svg width="15px" height="19px" viewBox="0 0 15 19" version="1.1" xmlns="http://www.w3.org/2000/svg" xmlns:xlink="http://www.w3.org/1999/xlink">
    <!-- Generator: sketchtool 52.3 (67297) - http://www.bohemiancoding.com/sketch -->
    <title>FE8504AE-67D8-4BA9-8E72-2B1C60711113</title>
    <desc>Created with sketchtool.</desc>
    <g id="Symbols" stroke="none" stroke-width="1" fill="none" fill-rule="evenodd">
        <g id="Account-Icon" fill="#303030" stroke="#303030" stroke-width="0.25">
            <g>
                <path d="M7.5,11 C3.35791667,11 0,14.2236 0,18.2 C0,18.6416 0.373333333,19 0.833333333,19 C1.29333333,19 1.66666667,18.6416 1.66666667,18.2 C1.66666667,15.1072 4.27833333,12.6 7.5,12.6 C10.7216667,12.6 13.3333333,15.1072 13.3333333,18.2 C13.3333333,18.6416 13.7066667,19 14.1666667,19 C14.6266667,19 15,18.6416 15,18.2 C15,14.2236 11.6420833,11 7.5,11" id="Fill-1"></path>
                <path d="M7.5,1.63636364 C9.08154545,1.63636364 10.3636364,2.91845455 10.3636364,4.5 C10.3636364,6.08154545 9.08154545,7.36363636 7.5,7.36363636 C5.91845455,7.36363636 4.63636364,6.08154545 4.63636364,4.5 C4.63636364,2.91845455 5.91845455,1.63636364 7.5,1.63636364 M7.5,9 C9.98522727,9 12,6.98522727 12,4.5 C12,2.01477273 9.98522727,0 7.5,0 C5.01477273,0 3,2.01477273 3,4.5 C3,6.98522727 5.01477273,9 7.5,9" id="Fill-3"></path>
            </g>
        </g>
    </g>
</svg>