<?xml version="1.0" encoding="UTF-8"?>
<svg width="25px" height="30px" viewBox="0 0 25 30" version="1.1" xmlns="http://www.w3.org/2000/svg" xmlns:xlink="http://www.w3.org/1999/xlink">
    <!-- Generator: sketchtool 52.3 (67297) - http://www.bohemiancoding.com/sketch -->
    <title>F8B3B0A8-3AF7-42F2-8819-76AB9A154AC1</title>
    <desc>Created with sketchtool.</desc>
    <g id="Symbols" stroke="none" stroke-width="1" fill="none" fill-rule="evenodd">
        <g id="Bag-Icon" fill="#303030" stroke="#000000" stroke-width="0.25">
            <g id="Fill-1">
                <path d="M21.3001049,25.3716136 C21.1169846,26.9995909 19.7099567,28.2272727 18.0272675,28.2272727 L6.96873532,28.2272727 C5.28632638,28.2272727 3.87929842,27.0000682 3.69589792,25.3727045 C3.15571407,20.5799318 2.23520885,12.3706364 1.92613206,9.61363636 L5.72612332,9.61363636 L5.72612332,13.3465909 C5.72612332,13.8353182 6.13467632,14.2329545 6.63682103,14.2329545 C7.13903579,14.2329545 7.54751874,13.8353182 7.54751874,13.3465909 L7.54751874,9.61363636 L17.4075728,9.61363636 L17.4075728,13.3465909 C17.4075728,13.8353182 17.8161258,14.2329545 18.3182705,14.2329545 C18.8204152,14.2329545 19.2289682,13.8353182 19.2289682,13.3465909 L19.2289682,9.61363636 L23.0734435,9.61363636 L21.3001049,25.3716136 Z M7.54751874,6.57068182 C7.54751874,3.92509091 9.7592532,1.77272727 12.477896,1.77272727 C15.1961185,1.77272727 17.4075728,3.92509091 17.4075728,6.57068182 L17.4075728,7.84090909 L7.54751874,7.84090909 L7.54751874,6.57068182 Z M24.7674814,8.13565909 C24.5950092,7.94829545 24.3477898,7.84090909 24.0892918,7.84090909 L19.2289682,7.84090909 L19.2289682,6.57068182 C19.2289682,2.94756818 16.2001277,0 12.4771955,0 C8.75468358,0 5.72612332,2.94756818 5.72612332,6.57068182 L5.72612332,7.84090909 L0.910704111,7.84090909 C0.652276123,7.84090909 0.405126776,7.94829545 0.232794748,8.13545455 C0.0602525594,8.32268182 -0.0226209321,8.57338636 0.0053304822,8.82334091 C0.0150679423,8.91020455 1.23140981,19.7642727 1.88536082,25.5660682 C2.17026909,28.0938409 4.35566338,30 6.96873532,30 L18.0272675,30 C20.6407598,30 22.8261541,28.0931591 23.1107821,25.5645682 L24.9945954,8.82375 C25.0227569,8.57372727 24.9399535,8.32295455 24.7674814,8.13565909 Z"></path>
            </g>
        </g>
    </g>
</svg>