<?xml version="1.0" encoding="UTF-8"?>
<svg width="31px" height="31px" viewBox="0 0 31 31" version="1.1" xmlns="http://www.w3.org/2000/svg" xmlns:xlink="http://www.w3.org/1999/xlink">
    <!-- Generator: sketchtool 52.3 (67297) - http://www.bohemiancoding.com/sketch -->
    <title>B3D1EF0B-DBEE-4F56-A1B3-4467FCDA882F</title>
    <desc>Created with sketchtool.</desc>
    <defs>
        <polygon id="path-1" points="6.32653061e-05 0 31 0 31 30.9998735 6.32653061e-05 30.9998735"></polygon>
    </defs>
    <g id="Symbols" stroke="none" stroke-width="1" fill="none" fill-rule="evenodd">
        <g id="Facebook---PINK">
            <g id="Facebook">
                <g id="Group-3">
                    <mask id="mask-2" fill="white">
                        <use xlink:href="#path-1"></use>
                    </mask>
                    <g id="Clip-2"></g>
                    <path d="M31.0000633,15.4998735 C31.0000633,24.060302 24.0604918,30.9998735 15.5000633,30.9998735 C6.93963469,30.9998735 6.32653061e-05,24.060302 6.32653061e-05,15.4998735 C6.32653061e-05,6.9394449 6.93963469,-0.000126530612 15.5000633,-0.000126530612 C24.0604918,-0.000126530612 31.0000633,6.9394449 31.0000633,15.4998735" id="Fill-1" fill="#FFB3AB" mask="url(#mask-2)"></path>
                </g>
                <path d="M16.8422004,25 L16.8422004,16.7898593 L19.4958844,16.7898593 L19.8939972,13.5903881 L16.8422004,13.5903881 L16.8422004,11.5458297 C16.8422004,10.6192719 17.0891387,9.98738575 18.3690022,9.98738575 L20,9.98738575 L20,7.12512911 C19.7181289,7.08634006 18.7484441,7.00000314 17.6221642,7.00000314 C15.2702269,6.99750062 13.6597069,8.49025348 13.6597069,11.2273841 L13.6597069,13.5878856 L11,13.5878856 L11,16.7879824 L13.6597069,16.7879824 L13.6597069,25 L16.8422004,25 Z" id="Fill-4" fill="#FFFFFF"></path>
            </g>
        </g>
    </g>
</svg>