<?xml version="1.0" encoding="UTF-8"?>
<svg width="31px" height="31px" viewBox="0 0 31 31" version="1.1" xmlns="http://www.w3.org/2000/svg" xmlns:xlink="http://www.w3.org/1999/xlink">
    <!-- Generator: sketchtool 52.3 (67297) - http://www.bohemiancoding.com/sketch -->
    <title>CA36B006-11C3-4939-B420-2172FFD1798E</title>
    <desc>Created with sketchtool.</desc>
    <defs>
        <polygon id="path-1" points="0 0 31 0 31 30.9999367 0 30.9999367"></polygon>
    </defs>
    <g id="Symbols" stroke="none" stroke-width="1" fill="none" fill-rule="evenodd">
        <g id="Instagram---PINK">
            <g id="Instagram">
                <g id="Group-3">
                    <mask id="mask-2" fill="white">
                        <use xlink:href="#path-1"></use>
                    </mask>
                    <g id="Clip-2"></g>
                    <path d="M31,15.4999367 C31,24.0603653 24.0604286,30.9999367 15.5,30.9999367 C6.93957143,30.9999367 0,24.0603653 0,15.4999367 C0,6.93950816 6.93957143,-6.32653061e-05 15.5,-6.32653061e-05 C24.0604286,-6.32653061e-05 31,6.93950816 31,15.4999367" id="Fill-1" fill="#FFB3AB" mask="url(#mask-2)"></path>
                </g>
                <path d="M19.4485249,12.2144361 C18.741077,12.2144361 18.1648442,11.6387273 18.1648442,10.9311626 C18.1648442,10.2235979 18.741077,9.64788907 19.4485249,9.64788907 C20.1559728,9.64788907 20.7315865,10.2235979 20.7315865,10.9311626 C20.7315865,11.6387273 20.1559728,12.2144361 19.4485249,12.2144361 M15.4996905,18.7824687 C13.6899113,18.7824687 12.2168352,17.3091494 12.2168352,15.4990714 C12.2168352,13.6883744 13.6899113,12.2156741 15.4996905,12.2156741 C17.3100887,12.2156741 18.7825459,13.6883744 18.7825459,15.4990714 C18.7825459,17.3091494 17.3100887,18.7824687 15.4996905,18.7824687 M22.9548174,12.4428624 C22.9201568,11.7136313 22.8118424,11.1496843 22.6026408,10.6135942 C22.395915,10.0836944 22.1254384,9.66955553 21.7256035,9.2715117 C21.3288632,8.87408691 20.9135548,8.60356568 20.3794099,8.39494862 C19.8396947,8.18571252 19.2758407,8.07738022 18.5510625,8.04395196 C17.7532494,8.00866658 17.4889622,8 15.4996905,8 C13.4998968,8 13.2374665,8.00866658 12.4464617,8.04642813 C11.7173509,8.07985638 11.153497,8.18818868 10.6181143,8.39680574 C10.0870642,8.60047047 9.6729936,8.8709917 9.27377759,9.2715117 C8.87579946,9.67017457 8.60532288,10.0855516 8.39735919,10.6185465 C8.18815762,11.1583509 8.07922426,11.7222979 8.04580153,12.4465767 C8.00928409,13.2346168 8,13.4970905 8,15.5015476 C8,17.5053857 8.00928409,17.7678594 8.04580153,18.5552804 C8.0798432,19.2851306 8.18815762,19.8490776 8.39735919,20.3845487 C8.604085,20.9150675 8.87456158,21.3292064 9.27377759,21.7260121 C9.67175573,22.124056 10.0864452,22.3945772 10.6199711,22.6025752 C11.1596864,22.8124304 11.7241593,22.9207627 12.4483185,22.95481 C13.2362286,22.9913334 13.498659,23 15.5021663,23 C17.5056736,23 17.768104,22.9913334 18.556014,22.95481 C19.2851248,22.9201436 19.8489787,22.8118113 20.3843615,22.6025752 C20.9154116,22.3958153 21.3294822,22.1259131 21.7256035,21.7260121 C22.1235816,21.3285873 22.3934392,20.9138294 22.6026408,20.3795964 C22.8118424,19.839792 22.9201568,19.275845 22.9548174,18.5509471 C22.9913348,17.7604309 23,17.4967191 23,15.4972143 C23,13.4964715 22.9913348,13.2333787 22.9548174,12.4428624" id="Fill-4" fill="#FFFFFF"></path>
            </g>
        </g>
    </g>
</svg>