<?xml version="1.0" encoding="UTF-8"?>
<svg width="23px" height="23px" viewBox="0 0 23 23" version="1.1" xmlns="http://www.w3.org/2000/svg" xmlns:xlink="http://www.w3.org/1999/xlink">
    <!-- Generator: sketchtool 52.3 (67297) - http://www.bohemiancoding.com/sketch -->
    <title>53CCA08B-1166-485D-8D89-B175B0ADB92E</title>
    <desc>Created with sketchtool.</desc>
    <defs>
        <polygon id="path-1" points="0 0 22.9999531 0 22.9999531 22.9998122 0 22.9998122"></polygon>
    </defs>
    <g id="Symbols" stroke="none" stroke-width="1" fill="none" fill-rule="evenodd">
        <g id="Instagram---White">
            <g id="Instagram">
                <g id="Group-3">
                    <mask id="mask-2" fill="white">
                        <use xlink:href="#path-1"></use>
                    </mask>
                    <g id="Clip-2"></g>
                    <path d="M17.1532592,13.8134245 C17.1269735,14.3630776 17.0453,14.7906898 16.8866469,15.1999959 C16.7279939,15.6046082 16.5228714,15.919098 16.2215245,16.2209143 C15.9206469,16.5236694 15.6066265,16.7287918 15.2043612,16.8855673 C14.7983408,17.0442204 14.3702592,17.1263633 13.8173204,17.1521796 C13.2202592,17.1803429 13.0212388,17.1869143 11.5013612,17.1869143 C9.98195306,17.1869143 9.78293265,17.1803429 9.18540204,17.1521796 C8.63621837,17.1268327 8.20860612,17.0446898 7.79883061,16.8855673 C7.39421837,16.7278531 7.07972857,16.5222612 6.77791224,16.2209143 C6.47515714,15.9195673 6.27003469,15.6055469 6.11325918,15.203751 C5.95507551,14.7977306 5.87246327,14.3701184 5.84711633,13.8167102 C5.81895306,13.2191796 5.81238163,13.0206286 5.81238163,11.500751 C5.81238163,9.98134286 5.81895306,9.78232245 5.84711633,9.18479184 C5.87246327,8.63560816 5.95460612,8.20799592 6.11325918,7.7986898 C6.27097347,7.39407755 6.47609592,7.07911837 6.77791224,6.77730204 C7.08066735,6.47313878 7.39515714,6.26848571 7.79742245,6.11405714 C8.20391224,5.95587347 8.63152449,5.87373061 9.18399388,5.84791429 C9.78387143,5.81975102 9.98336122,5.81317959 11.4999531,5.81317959 C13.0085653,5.81317959 13.2085245,5.81975102 13.8135653,5.84603673 C14.3632184,5.87185306 14.7908306,5.95399592 15.2006061,6.11264898 C15.6052184,6.27083265 15.9201776,6.47548571 16.2215245,6.77730204 C16.5242796,7.07864898 16.7298714,7.39266939 16.8866469,7.79493469 C17.0453,8.20142449 17.1269735,8.62903673 17.1532592,9.18197551 C17.1814224,9.78138367 17.1875245,9.98087347 17.1875245,11.4974653 C17.1875245,13.0140571 17.1814224,13.2140163 17.1532592,13.8134245 M11.4999531,-0.000187755102 C5.14866735,-0.000187755102 -4.69387755e-05,5.14852653 -4.69387755e-05,11.4998122 C-4.69387755e-05,17.8515673 5.14866735,22.9998122 11.4999531,22.9998122 C17.8512388,22.9998122 22.9999531,17.8515673 22.9999531,11.4998122 C22.9999531,5.14852653 17.8512388,-0.000187755102 11.4999531,-0.000187755102" id="Fill-1" fill="#FFFFFF" mask="url(#mask-2)"></path>
                </g>
                <path d="M14.0002411,7 C13.4489993,7 13,7.44910757 13,8 C13,8.55185721 13.4489993,9 14.0002411,9 C14.551483,9 15,8.55185721 15,8 C15,7.44910757 14.551483,7 14.0002411,7" id="Fill-4" fill="#FFFFFF"></path>
                <path d="M11.5,9 C10.1217949,9 9,10.1213235 9,11.5 C9,12.8786765 10.1217949,14 11.5,14 C12.8786765,14 14,12.8786765 14,11.5 C14,10.1213235 12.8786765,9 11.5,9" id="Fill-6" fill="#FFFFFF"></path>
            </g>
        </g>
    </g>
</svg>