<?xml version="1.0" encoding="UTF-8"?>
<svg width="111px" height="130px" viewBox="0 0 111 130" version="1.1" xmlns="http://www.w3.org/2000/svg" xmlns:xlink="http://www.w3.org/1999/xlink">
    <!-- Generator: sketchtool 52.3 (67297) - http://www.bohemiancoding.com/sketch -->
    <title>D60AABC8-45D8-40DC-A4DA-28D353E05366</title>
    <desc>Created with sketchtool.</desc>
    <g id="Symbols" stroke="none" stroke-width="1" fill="none" fill-rule="evenodd">
        <g id="NAV---MOBILE---OPEN" transform="translate(-222.000000, -20.000000)" fill="#FFFFFF">
            <g id="Nav-Open">
                <g id="Logo" transform="translate(277.500000, 85.000000) rotate(90.000000) translate(-277.500000, -85.000000) translate(212.500000, 29.500000)">
                    <path d="M94.3768924,85.4311442 C89.7270321,85.4311442 87.0023364,82.7644796 87.0023364,78.0245549 L87.0023364,64.9150943 L92.7783822,64.9150943 L92.7783822,77.2837835 C92.7783822,79.357606 93.9040159,80.3205526 96.0835517,80.3205526 C98.3364745,80.3205526 100.514907,79.0617474 100.514907,76.9508019 L100.514907,64.9150943 L106.292056,64.9150943 L106.292056,92.6886792 L100.514907,92.6886792 L100.514907,82.9866547 C99.0267528,84.5053205 96.6645774,85.4311442 94.3768924,85.4311442 Z M78.8695426,77.8872932 L70.8386114,77.8872932 C71.2056792,80.0604785 72.416056,81.3034965 74.7259653,81.3034965 C77.146719,81.3034965 78.3933013,79.9572431 78.8695426,77.8872932 Z M65.5581822,72.4367746 C66.2176789,68.9865088 69.2249613,66.1226415 74.6892028,66.1226415 C80.6302426,66.1226415 84.5911215,70.1938922 84.5911215,75.7827568 C84.5911215,81.337559 81.0702784,85.4433962 74.6524403,85.4433962 C68.8584505,85.4433962 65.3014019,81.751549 65.3014019,75.8173434 C65.3014019,75.3001179 65.3376073,74.7818444 65.4111323,74.19597 L78.980387,74.19597 C78.6489677,71.7120302 76.9261441,70.2284787 74.5421529,70.2284787 C73.0761097,70.2284787 71.1310402,70.7116417 70.1780007,72.4367746 L65.5581822,72.4367746 Z M57.4649533,93.8962264 L57.4649533,66.1226415 L62.2873832,66.1226415 L62.2873832,93.8962264 L57.4649533,93.8962264 Z M47.8200935,93.8962264 L47.8200935,66.1226415 L52.6425234,66.1226415 L52.6425234,93.8962264 L47.8200935,93.8962264 Z M39.0112118,76.6886792 C39.0112118,73.6643835 37.1172039,71.3132246 34.2567272,71.3132246 C31.4707246,71.3132246 29.5022427,73.6643835 29.5022427,76.6886792 C29.5022427,79.712975 31.4707246,82.1026961 34.2567272,82.1026961 C37.1172039,82.1026961 39.0112118,79.712975 39.0112118,76.6886792 Z M23.7079439,76.6886792 C23.7079439,70.7897997 28.1278599,66.1226415 34.2567272,66.1226415 C40.4228316,66.1226415 44.8060748,70.7897997 44.8060748,76.6886792 C44.8060748,82.6255539 40.4228316,87.254717 34.2567272,87.254717 C28.1278599,87.254717 23.7079439,82.6255539 23.7079439,76.6886792 Z M28.5229706,51.8445204 C29.1445772,53.793985 30.731089,55.0813357 32.5943363,55.0813357 C35.2165096,55.0813357 36.9770294,52.727339 36.9770294,49.7844241 C36.9770294,46.8046319 35.2165096,44.4506353 32.5943363,44.4506353 C30.731089,44.4506353 29.1445772,45.7748632 28.5229706,47.6874505 L28.5229706,51.8445204 Z M27.90084,59.9373967 L23.1051402,59.9005195 L23.1051402,32.3113208 L28.5229706,32.3113208 L28.5229706,41.5077203 C29.8337952,40.1460565 31.5591989,39.5208197 33.6645897,39.5208197 C38.7710928,39.5208197 42.3948598,43.9354715 42.3948598,49.7844241 C42.3948598,55.6333767 38.7710928,60.0849057 33.6645897,60.0849057 C31.4208312,60.0849057 29.558108,59.2752828 28.1775754,57.693473 L27.90084,59.9373967 Z M50.5267049,47.7164804 L58.558982,47.7164804 C58.1913466,45.542771 56.9814918,44.3002771 54.6709588,44.3002771 C52.2506922,44.3002771 51.0040739,45.6460065 50.5267049,47.7164804 Z M64.0957944,49.7864302 C64.0957944,50.3036557 64.0595879,50.8214052 63.9860608,51.4078036 L50.4169713,51.4078036 C50.7472861,53.8917434 52.4701594,55.3752948 54.8553336,55.3752948 C56.3208621,55.3752948 58.2654307,54.8921319 59.2184977,53.166999 L63.8384496,53.166999 C63.180048,56.6172647 60.1721217,59.4811321 54.7077224,59.4811321 C48.766511,59.4811321 44.8060748,55.4098813 44.8060748,49.8210167 C44.8060748,44.2662146 48.3270195,40.1603774 54.7450429,40.1603774 C60.5392001,40.1603774 64.0957944,43.8517006 64.0957944,49.7864302 Z M67.1098131,59.4811321 L67.1098131,31.7075472 L71.932243,31.7075472 L71.932243,59.4811321 L67.1098131,59.4811321 Z M76.7546729,59.4811321 L76.7546729,31.7075472 L81.5771028,31.7075472 L81.5771028,59.4811321 L76.7546729,59.4811321 Z M101.702956,48.9150943 C101.702956,45.8907985 99.7345263,43.5016446 96.9480339,43.5016446 C94.088198,43.5016446 92.1942408,45.8907985 92.1942408,48.9150943 C92.1942408,51.9393901 94.088198,54.2911161 96.9480339,54.2911161 C99.7345263,54.2911161 101.702956,51.9393901 101.702956,48.9150943 Z M86.3995327,48.9150943 C86.3995327,42.9787867 90.7820945,38.3490566 96.9480339,38.3490566 C103.076737,38.3490566 107.497664,42.9787867 107.497664,48.9150943 C107.497664,54.8139739 103.076737,59.4811321 96.9480339,59.4811321 C90.7820945,59.4811321 86.3995327,54.8139739 86.3995327,48.9150943 Z M4.85811914,106.09631 L125.141337,106.09631 L125.141337,18.9036899 L4.85811914,18.9036899 L4.85811914,106.09631 Z M0.5,110.5 L0.5,14.5 L129.5,14.5 L129.5,110.5 L0.5,110.5 Z" id="Logo-Shape"></path>
                    <g id="TM" transform="translate(124.000000, 0.000000)">
                        <polygon id="Fill-15" points="0.375 1.16093438 4.26287991 2 0.375 2.83014438 0.375 3.71428571 5.625 3.71428571 5.625 3.08275619 1.85542995 3.08275619 5.625 2.32445123 5.625 1.666158 1.85542995 0.907853034 5.625 0.907853034 5.625 0.285714286 0.375 0.285714286"></polygon>
                        <polygon id="Fill-16" points="1.27433086 7.71428571 1.27433086 6.48031402 5.625 6.48031402 5.625 5.5332461 1.27433086 5.5332461 1.27433086 4.28571429 0.375 4.28571429 0.375 7.71428571"></polygon>
                    </g>
                </g>
            </g>
        </g>
    </g>
</svg>