<?xml version="1.0" encoding="UTF-8"?>
<svg width="216px" height="290px" viewBox="0 0 216 290" version="1.1" xmlns="http://www.w3.org/2000/svg" xmlns:xlink="http://www.w3.org/1999/xlink">
    <!-- Generator: sketchtool 52.3 (67297) - http://www.bohemiancoding.com/sketch -->
    <title>ED5428FF-CA09-4233-8DC6-0BDF0E2782AD</title>
    <desc>Created with sketchtool.</desc>
    <g id="Page-1" stroke="none" stroke-width="1" fill="none" fill-rule="evenodd">
        <g id="Artboard" transform="translate(-401.000000, -108.000000)" fill="#FFFFFF">
            <g id="Logo" transform="translate(517.500000, 388.500000) rotate(90.000000) translate(-517.500000, -388.500000) translate(118.000000, -131.000000)">
                <path d="M329.439114,579.537426 C319.073801,579.537426 313,573.488517 313,562.736745 L313,533 L325.875769,533 L325.875769,561.056422 C325.875769,565.760561 328.384994,567.944854 333.243542,567.944854 C338.265683,567.944854 343.121771,565.089453 343.121771,560.301106 L343.121771,533 L356,533 L356,596 L343.121771,596 L343.121771,573.992487 C339.804428,577.437341 334.538745,579.537426 329.439114,579.537426 Z M295.245647,562.183243 L277.343363,562.183243 C278.161618,567.019854 280.85975,569.786297 286.008923,569.786297 C291.405186,569.786297 294.184026,566.790095 295.245647,562.183243 Z M265.572406,550.052646 C267.042534,542.373783 273.746268,536 285.926973,536 C299.170541,536 308,545.060918 308,557.499417 C308,569.862106 300.151454,579 285.845023,579 C272.929254,579 265,570.783477 265,557.576392 C265,556.425262 265.080708,555.2718 265.244607,553.967886 L295.492738,553.967886 C294.753949,548.439665 290.913488,545.137894 285.599174,545.137894 C282.33112,545.137894 277.995235,546.213214 275.870752,550.052646 L265.572406,550.052646 Z M247.5,598.5 L247.5,535.5 L257.5,535.5 L257.5,598.5 L247.5,598.5 Z M225.5,598.5 L225.5,535.5 L235.5,535.5 L235.5,598.5 L225.5,598.5 Z M205.816205,560 C205.816205,553.130528 201.50718,547.790039 194.999358,547.790039 C188.660971,547.790039 184.182511,553.130528 184.182511,560 C184.182511,566.869472 188.660971,572.297553 194.999358,572.297553 C201.50718,572.297553 205.816205,566.869472 205.816205,560 Z M171,560 C171,546.601116 181.055676,536 194.999358,536 C209.027758,536 219,546.601116 219,560 C219,573.485187 209.027758,584 194.999358,584 C181.055676,584 171,573.485187 171,560 Z M181.077247,504.307985 C182.462912,508.730038 185.999511,511.65019 190.153,511.65019 C195.998261,511.65019 199.922753,506.31052 199.922753,499.634981 C199.922753,492.875792 195.998261,487.536122 190.153,487.536122 C185.999511,487.536122 182.462912,490.539924 181.077247,494.878327 L181.077247,504.307985 Z M179.690414,522.665399 L169,522.581749 L169,460 L181.077247,460 L181.077247,480.860583 C183.999294,477.771863 187.845506,476.353612 192.538773,476.353612 C203.922019,476.353612 212,486.367554 212,499.634981 C212,512.902408 203.922019,523 192.538773,523 C187.537061,523 183.384741,521.163498 180.307304,517.575412 L179.690414,522.665399 Z M231.752238,494.816757 L249.657522,494.816757 C248.838002,489.97898 246.141034,487.213703 240.990471,487.213703 C235.595293,487.213703 232.816373,490.208739 231.752238,494.816757 Z M262,499.423608 C262,500.574738 261.91929,501.727034 261.755386,503.032114 L231.507623,503.032114 C232.24395,508.560335 236.084522,511.862106 241.401473,511.862106 C244.66838,511.862106 249.003148,510.786786 251.127693,506.947354 L261.426336,506.947354 C259.958649,514.626217 253.25348,521 241.072423,521 C227.828472,521 219,511.939082 219,499.500583 C219,487.137894 226.848773,478 241.155617,478 C254.071759,478 262,486.215357 262,499.423608 Z M269.5,521.5 L269.5,458.5 L279.5,458.5 L279.5,521.5 L269.5,521.5 Z M290.5,521.5 L290.5,458.5 L300.5,458.5 L300.5,521.5 L290.5,521.5 Z M345.816558,497 C345.816558,490.130528 341.338218,484.703736 334.998716,484.703736 C328.492352,484.703736 324.183442,490.130528 324.183442,497 C324.183442,503.869472 328.492352,509.211249 334.998716,509.211249 C341.338218,509.211249 345.816558,503.869472 345.816558,497 Z M311,497 C311,483.516101 320.970692,473 334.998716,473 C348.942026,473 359,483.516101 359,497 C359,510.398884 348.942026,521 334.998716,521 C320.970692,521 311,510.398884 311,497 Z M128.797322,626.091698 L399.201455,626.091698 L399.201455,429.908302 L128.797322,429.908302 L128.797322,626.091698 Z M119,636 L119,420 L409,420 L409,636 L119,636 Z" id="Logo-Shape"></path>
            </g>
        </g>
    </g>
</svg>