<?xml version="1.0" encoding="UTF-8"?>
<svg width="19px" height="19px" viewBox="0 0 19 19" version="1.1" xmlns="http://www.w3.org/2000/svg" xmlns:xlink="http://www.w3.org/1999/xlink">
    <!-- Generator: sketchtool 52.3 (67297) - http://www.bohemiancoding.com/sketch -->
    <title>6D99BA8A-7AA7-4DAD-AE91-0BDAE324BC90</title>
    <desc>Created with sketchtool.</desc>
    <defs>
        <polygon id="path-1" points="0 0 19 0 19 19 0 19"></polygon>
    </defs>
    <g id="Symbols" stroke="none" stroke-width="1" fill="none" fill-rule="evenodd">
        <g id="Search-Icon">
            <g>
                <mask id="mask-2" fill="white">
                    <use xlink:href="#path-1"></use>
                </mask>
                <g id="Clip-2"></g>
                <path d="M8.18082727,12.6790123 C6.9682959,12.6790123 5.85852143,12.2057613 4.99536351,11.3621399 C3.24849628,9.61316872 3.24849628,6.75308642 4.99536351,4.98353909 C5.83797005,4.1399177 6.9682959,3.66666667 8.18082727,3.66666667 C9.39335864,3.66666667 10.5031331,4.1399177 11.366291,4.98353909 C12.229449,5.82716049 12.6815793,6.95884774 12.6815793,8.17283951 C12.6815793,9.38683128 12.2091031,10.4979424 11.366291,11.3621399 C10.5236845,12.2263374 9.37280726,12.6790123 8.18082727,12.6790123 M16.7507524,15.5802469 L13.0720555,11.8971193 C14.9216796,9.48971193 14.7367172,6.01234568 12.5173738,3.81069959 C11.3046369,2.59670782 9.7429376,2 8.16027589,2 C6.5778197,2 5.01591489,2.59670782 3.80338352,3.81069959 C1.39887216,6.218107 1.39887216,10.127572 3.80338352,12.5349794 C5.01591489,13.7489712 6.5778197,14.345679 8.16027589,14.345679 C9.47556416,14.345679 10.7908524,13.9341564 11.8800755,13.090535 L15.5793238,16.7530864 C15.7437348,16.9176955 15.9492486,17 16.1753138,17 C16.3808275,17 16.6068927,16.9176955 16.7713037,16.7530864 C17.0795744,16.4444444 17.0795744,15.909465 16.7507524,15.5802469" id="Fill-1" stroke="#303030" stroke-width="0.25" fill="#303030" mask="url(#mask-2)"></path>
            </g>
        </g>
    </g>
</svg>