<?xml version="1.0" encoding="UTF-8"?>
<svg width="23px" height="23px" viewBox="0 0 23 23" version="1.1" xmlns="http://www.w3.org/2000/svg" xmlns:xlink="http://www.w3.org/1999/xlink">
    <!-- Generator: sketchtool 52.3 (67297) - http://www.bohemiancoding.com/sketch -->
    <title>1A7B699A-528C-42AF-84D7-76814EBBCBC6</title>
    <desc>Created with sketchtool.</desc>
    <defs>
        <polygon id="path-1" points="9.3877551e-05 0 23 0 23 22.9997653 9.3877551e-05 22.9997653"></polygon>
    </defs>
    <g id="Symbols" stroke="none" stroke-width="1" fill="none" fill-rule="evenodd">
        <g id="Youtube---White">
            <g id="Youtube">
                <g id="Group-3">
                    <mask id="mask-2" fill="white">
                        <use xlink:href="#path-1"></use>
                    </mask>
                    <g id="Clip-2"></g>
                    <path d="M17.7058694,14.6380918 C17.5580122,15.1994796 17.1210122,15.6388265 16.5610327,15.7909082 C15.5509102,16.0636224 11.5000939,16.0636224 11.5000939,16.0636224 C11.5000939,16.0636224 7.4511551,16.0636224 6.44056327,15.7909082 C5.88105306,15.6388265 5.44405306,15.1994796 5.29619592,14.6380918 C5.0248898,13.6218673 5.0248898,11.4997653 5.0248898,11.4997653 C5.0248898,11.4997653 5.0248898,9.37813265 5.29619592,8.36190816 C5.44405306,7.80052041 5.88105306,7.36117347 6.44056327,7.20956122 C7.44927755,6.93637755 11.5000939,6.93637755 11.5000939,6.93637755 C11.5000939,6.93637755 15.5509102,6.93637755 16.5610327,7.20956122 C17.1210122,7.36117347 17.5580122,7.80052041 17.7058694,8.36190816 C17.975298,9.37813265 17.975298,11.4997653 17.975298,11.4997653 C17.975298,11.4997653 17.975298,13.6218673 17.7058694,14.6380918 M11.5000939,-0.000234693878 C5.14880816,-0.000234693878 9.3877551e-05,5.14847959 9.3877551e-05,11.4997653 C9.3877551e-05,17.8515204 5.14880816,22.9997653 11.5000939,22.9997653 C17.8513796,22.9997653 23.0000939,17.8515204 23.0000939,11.4997653 C23.0000939,5.14847959 17.8513796,-0.000234693878 11.5000939,-0.000234693878" id="Fill-1" fill="#FFFFFF" mask="url(#mask-2)"></path>
                </g>
                <polygon id="Fill-4" fill="#FFFFFF" points="10 14 13 11.9997561 10 10"></polygon>
            </g>
        </g>
    </g>
</svg>