<?xml version="1.0" encoding="UTF-8"?>
<svg width="31px" height="31px" viewBox="0 0 31 31" version="1.1" xmlns="http://www.w3.org/2000/svg" xmlns:xlink="http://www.w3.org/1999/xlink">
    <!-- Generator: sketchtool 52.3 (67297) - http://www.bohemiancoding.com/sketch -->
    <title>D17E5220-8C92-4258-BE73-2865EFBC6461</title>
    <desc>Created with sketchtool.</desc>
    <defs>
        <polygon id="path-1" points="0 0 31 0 31 30.9999367 0 30.9999367"></polygon>
    </defs>
    <g id="Symbols" stroke="none" stroke-width="1" fill="none" fill-rule="evenodd">
        <g id="Youtube---PINK">
            <g id="Youtube">
                <g id="Group-3">
                    <mask id="mask-2" fill="white">
                        <use xlink:href="#path-1"></use>
                    </mask>
                    <g id="Clip-2"></g>
                    <path d="M31,15.4999367 C31,24.0603653 24.0604286,30.9999367 15.5,30.9999367 C6.93957143,30.9999367 0,24.0603653 0,15.4999367 C0,6.93950816 6.93957143,-6.32653061e-05 15.5,-6.32653061e-05 C24.0604286,-6.32653061e-05 31,6.93950816 31,15.4999367" id="Fill-1" fill="#FFB3AB" mask="url(#mask-2)"></path>
                </g>
                <path d="M13.7617978,17.5311391 L13.7617978,12.469478 L18.2061979,14.9996914 L13.7617978,17.5311391 Z M23.6463211,10.8742093 C23.4522291,10.1361275 22.8785792,9.55849833 22.1441102,9.35916688 C20.8175063,9 15.5,9 15.5,9 C15.5,9 10.1824937,9 8.85897064,9.35916688 C8.12450163,9.55849833 7.55085176,10.1361275 7.35614353,10.8742093 C7,12.2102854 7,14.9996914 7,14.9996914 C7,14.9996914 7,17.7897146 7.35614353,19.1257907 C7.55085176,19.8638725 8.12450163,20.4415017 8.85897064,20.6414502 C10.1849583,21 15.5,21 15.5,21 C15.5,21 20.8175063,21 22.1441102,20.6414502 C22.8785792,20.4415017 23.4522291,19.8638725 23.6463211,19.1257907 C24,17.7897146 24,14.9996914 24,14.9996914 C24,14.9996914 24,12.2102854 23.6463211,10.8742093 Z" id="Fill-4" fill="#FFFFFF"></path>
            </g>
        </g>
    </g>
</svg>